<svg xmlns="http://www.w3.org/2000/svg" viewBox="0 0 32 32" id="Boat">
  <path d="M-35 1015.876a.5.5 0 0 0-.5.5v2.506h-2.501a.5.5 0 0 0-.5.5v2.502H-41a.5.5 0 0 0-.5.5v4.686a.5.5 0 0 0 .002.033l-5.674 2.078a.5.5 0 0 0-.293.652l4.659 11.782a3.49 3.49 0 0 1-.922-.538.5.5 0 1 0-.635.774 4.49 4.49 0 0 0 5.35.244 4.483 4.483 0 0 0 4.998 0 4.479 4.479 0 0 0 5 0 4.488 4.488 0 0 0 5.369-.256.5.5 0 0 0-.332-.888.5.5 0 0 0-.307.119 3.485 3.485 0 0 1-.883.523l4.633-11.637a.5.5 0 0 0-.289-.652l-5.676-2.133v-4.785a.5.5 0 0 0-.5-.5h-2.502v-2.502a.5.5 0 0 0-.5-.5H-32.5v-2.506a.5.5 0 0 0-.5-.5h-2zm.5 1h1v1.944l-1-.021v-1.922zm-3 3.006H-30.504v2.002H-37.5v-2.002zm-3 3.002h10.454a.5.5 0 0 0 .076 0h2.47v3.909l-6.315-2.373a.5.5 0 0 0-.196-.036.5.5 0 0 0-.146.027.5.5 0 0 0-.006 0 .5.5 0 0 0-.01 0 .5.5 0 0 0-.031.012l-6.297 2.307v-3.851zm6 2.72v15.612a3.469 3.469 0 0 1-4.003.02.5.5 0 0 0-.469-.288.5.5 0 0 0-.11.018.5.5 0 0 0-.4.242 3.47 3.47 0 0 1-2.15.655l-4.717-11.92 11.848-4.34zm1 0 11.847 4.452-4.69 11.781a.5.5 0 0 0-.007.021 3.472 3.472 0 0 1-2.163-.63.5.5 0 0 0-.466-.282.5.5 0 0 0-.116.018.5.5 0 0 0-.382.235 3.47 3.47 0 0 1-4.024.037v-15.633zm-5.472 17.345a.5.5 0 0 0-.058.01.5.5 0 0 0-.488.28 3.482 3.482 0 0 1-4.211-.155.5.5 0 1 0-.635.771 4.49 4.49 0 0 0 5.35.244 4.483 4.483 0 0 0 4.998 0 4.479 4.479 0 0 0 5 0 4.488 4.488 0 0 0 5.369-.255.5.5 0 0 0-.332-.889.5.5 0 0 0-.307.12 3.48 3.48 0 0 1-4.225.165.5.5 0 0 0-.468-.285.5.5 0 0 0-.057.01.5.5 0 0 0-.479.271 3.474 3.474 0 0 1-3.996.01.5.5 0 0 0-.468-.285.5.5 0 0 0-.057.01.5.5 0 0 0-.479.272c-1.2.844-2.784.85-3.988.014a.5.5 0 0 0-.469-.291zm0 2.002a.5.5 0 0 0-.12.02.5.5 0 0 0-.387.238 3.482 3.482 0 0 1-4.25-.127.5.5 0 0 0-.635.773 4.49 4.49 0 0 0 5.35.245 4.483 4.483 0 0 0 4.998 0 4.479 4.479 0 0 0 5 0 4.488 4.488 0 0 0 5.369-.256.5.5 0 0 0-.332-.89.5.5 0 0 0-.307.118 3.48 3.48 0 0 1-4.22.168.5.5 0 0 0-.473-.287.5.5 0 0 0-.13.022.5.5 0 0 0-.365.229 3.471 3.471 0 0 1-4.033.037.5.5 0 0 0-.472-.288.5.5 0 0 0-.13.022.5.5 0 0 0-.365.229 3.472 3.472 0 0 1-4.025.043.5.5 0 0 0-.473-.293z" color="#000" font-family="sans-serif" font-weight="400" overflow="visible" style="line-height:normal;text-indent:0;text-align:start;text-decoration-line:none;text-decoration-style:solid;text-decoration-color:#000;text-transform:none;block-progression:tb;white-space:normal;isolation:auto;mix-blend-mode:normal;solid-color:#000;solid-opacity:1" transform="translate(50.5 -1015.877)" fill="#ff5722" class="color000000 svgShape"></path>
</svg>
