<?xml version="1.0" encoding="utf-8"?>
<svg xmlns="http://www.w3.org/2000/svg" width="20" height="20" viewBox="0 0 20 20" fill="none">
<path d="M12.6667 18L7.33333 16.1333L3.2 17.7333C2.9037 17.8519 2.62963 17.8184 2.37778 17.6329C2.12593 17.4474 2 17.1994 2 16.8889V4.44444C2 4.25185 2.0557 4.08148 2.16711 3.93333C2.27852 3.78519 2.43022 3.67407 2.62222 3.6L7.33333 2L12.6667 3.86667L16.8 2.26667C17.0963 2.14815 17.3704 2.18163 17.6222 2.36711C17.8741 2.55259 18 2.80059 18 3.11111V15.5556C18 15.7481 17.9443 15.9185 17.8329 16.0667C17.7215 16.2148 17.5698 16.3259 17.3778 16.4L12.6667 18ZM11.7778 15.8222V5.42222L8.22222 4.17778V14.5778L11.7778 15.8222Z" fill="url(#paint0_linear_14686_11507)"/>
<defs>
<linearGradient id="paint0_linear_14686_11507" x1="10" y1="0.4" x2="10" y2="19.6" gradientUnits="userSpaceOnUse">
<stop stop-color="#C284FF"/>
<stop offset="1" stop-color="#8000FF"/>
</linearGradient>
</defs>
</svg>