<?xml version="1.0" encoding="utf-8"?>
<svg xmlns="http://www.w3.org/2000/svg" width="20" height="20" viewBox="0 0 20 20" fill="none">
<path d="M5.00014 8.76878C5.78912 8.76878 6.42871 8.14576 6.42871 7.37723C6.42871 6.6087 5.78912 5.98568 5.00014 5.98568C4.21116 5.98568 3.57157 6.6087 3.57157 7.37723C3.57157 8.14576 4.21116 8.76878 5.00014 8.76878Z" fill="url(#paint0_linear_14686_11671)"/>
<path d="M18.0973 3.90112C12.7251 2.03296 7.27585 2.03296 1.903 3.90112C1.61871 3.99992 1.42871 4.26223 1.42871 4.55654V15.444C1.42871 15.7383 1.61871 16.0006 1.903 16.0994C4.58943 17.0331 7.29514 17.5 10.0001 17.5C12.7051 17.5 15.4109 17.0331 18.0973 16.0994C18.3816 16.0006 18.5716 15.7383 18.5716 15.444V4.55654C18.5716 4.26223 18.3816 3.99992 18.0973 3.90112ZM17.143 5.05193V13.6523L13.3859 8.92177C12.9144 8.46187 12.0859 8.46187 11.6144 8.92177L8.21443 12.2337L7.31442 11.357C6.843 10.8971 6.01443 10.8971 5.543 11.357L2.85728 15.0438V5.05193C7.59943 3.50731 12.4009 3.50731 17.143 5.05193Z" fill="url(#paint1_linear_14686_11671)"/>
<defs>
<linearGradient id="paint0_linear_14686_11671" x1="10.0001" y1="1" x2="10.0001" y2="19" gradientUnits="userSpaceOnUse">
<stop stop-color="#C284FF"/>
<stop offset="1" stop-color="#8000FF"/>
</linearGradient>
<linearGradient id="paint1_linear_14686_11671" x1="10.0001" y1="1" x2="10.0001" y2="19" gradientUnits="userSpaceOnUse">
<stop stop-color="#C284FF"/>
<stop offset="1" stop-color="#8000FF"/>
</linearGradient>
</defs>
</svg>