<svg width="16" height="16" viewBox="0 0 16 16" fill="none" xmlns="http://www.w3.org/2000/svg"><path d="M10.5777 11.4072H5.42183" stroke="#444444" stroke-miterlimit="10"></path><path d="M2.30518 11.4066H2C1.44772 11.4066 1 10.9589 1 10.4066V4.40658C1 3.7034 1.56955 3.13385 2.27273 3.13385H12.9904C13.6936 3.13385 14.2632 3.7034 14.2632 4.40658L14.8837 10.3019C14.9459 10.8923 14.4829 11.4066 13.8892 11.4066H13.6948" stroke="#444444" stroke-miterlimit="10"></path><path d="M3.86373 13.3154C4.74236 13.3154 5.45464 12.6031 5.45464 11.7245C5.45464 10.8459 4.74236 10.1336 3.86373 10.1336C2.98509 10.1336 2.27282 10.8459 2.27282 11.7245C2.27282 12.6031 2.98509 13.3154 3.86373 13.3154Z" stroke="#444444" stroke-miterlimit="10" stroke-linecap="square"></path><path d="M12.136 13.3157C13.0147 13.3157 13.7269 12.6034 13.7269 11.7248C13.7269 10.8461 13.0147 10.1339 12.136 10.1339C11.2574 10.1339 10.5451 10.8461 10.5451 11.7248C10.5451 12.6034 11.2574 13.3157 12.136 13.3157Z" stroke="#444444" stroke-miterlimit="10" stroke-linecap="square"></path><path d="M1 7.58871H15" stroke="#444444" stroke-miterlimit="10"></path><path d="M9.84211 3L10.4451 7.58839" stroke="#444444" stroke-miterlimit="10"></path></svg>
